<svg width="24" height="24" viewBox="0 0 24 24" fill="none" xmlns="http://www.w3.org/2000/svg">
<path d="M7.11111 16.5415H21.3747L16.4716 21.5415H2.20801L7.11111 16.5415Z" fill="#4BAEFE"/>
<path d="M2.36621 21.3837L7.00009 16.7498M7.00009 16.7498H20.6376M7.00009 16.7498V3.1123" stroke="black" stroke-linecap="round" stroke-linejoin="round" stroke-dasharray="4.17 4.17"/>
<path d="M20.3839 3.36612C20.6183 3.60054 20.75 3.91848 20.75 4.25V16.2325C20.7499 16.5638 20.6183 16.8815 20.3842 17.1158L16.1158 21.3842C15.8815 21.6183 15.5638 21.7499 15.2325 21.75H3.25C2.91848 21.75 2.60054 21.6183 2.36612 21.3839C2.1317 21.1495 2 20.8315 2 20.5V8.5175C2.00007 8.18621 2.13165 7.8685 2.36583 7.63417L6.63417 3.36583C6.8685 3.13165 7.18621 3.00007 7.5175 3H19.5C19.8315 3 20.1495 3.1317 20.3839 3.36612ZM20.3839 3.36612L15.75 8M15.75 21.6375V8M15.75 8H2.1125" stroke="black" stroke-linecap="round" stroke-linejoin="round"/>
</svg>
