<svg width="20" height="11" viewBox="0 0 20 11" fill="none" xmlns="http://www.w3.org/2000/svg">
<path d="M9.02441 10.5205C9.13489 10.6292 9.26474 10.7147 9.40625 10.7725C9.29997 10.7291 9.20026 10.6702 9.11035 10.5977L9.02441 10.5205ZM10.6904 10.5205C10.5799 10.6292 10.4502 10.7147 10.3086 10.7725C10.4501 10.7147 10.58 10.6292 10.6904 10.5205ZM19.7139 1.49902L10.6201 10.4492C10.418 10.648 10.1439 10.7607 9.85742 10.7607C9.57095 10.7607 9.29686 10.648 9.09473 10.4492L0 1.49902L1.52344 0L9.78711 8.13184L9.85742 8.20117L18.1904 0L19.7139 1.49902Z" fill="#222222"/>
</svg>
