<svg width="25" height="25" viewBox="0 0 25 25" fill="none" xmlns="http://www.w3.org/2000/svg">
<path d="M17.5635 12.9969C17.6719 12.8861 17.7569 12.7559 17.8142 12.6142C17.7713 12.7206 17.7126 12.8205 17.6404 12.9107L17.5635 12.9969ZM17.558 11.3309C17.6671 11.441 17.7531 11.5705 17.8112 11.7119C17.753 11.5706 17.6671 11.441 17.558 11.3309ZM8.50664 2.33742L17.487 11.4014C17.6864 11.6029 17.8001 11.8766 17.801 12.1631C17.802 12.4496 17.6902 12.724 17.492 12.9268L8.57205 22.0512L7.06798 20.5327L15.1724 12.2421L15.2415 12.1716L7.01268 3.86582L8.50664 2.33742Z" fill="#FBFBFB"/>
</svg>
