<svg width="20" height="20" viewBox="0 0 20 20" fill="none" xmlns="http://www.w3.org/2000/svg">
<path d="M3.33325 16.666L16.6666 16.666" stroke="#8B919B" stroke-linecap="round"/>
<path d="M13.0312 3.81378C13.339 3.50595 13.7565 3.33301 14.1919 3.33301C14.6272 3.33301 15.0447 3.50595 15.3526 3.81378C15.6604 4.12161 15.8333 4.53913 15.8333 4.97447C15.8333 5.40981 15.6604 5.82732 15.3526 6.13516L8.37838 13.1101C8.19464 13.2937 7.96765 13.4281 7.71833 13.5009L5.49523 14.1509C5.42864 14.1703 5.35806 14.1714 5.29088 14.1542C5.22369 14.137 5.16236 14.1021 5.11332 14.053C5.06428 14.004 5.02932 13.9427 5.0121 13.8755C4.99489 13.8083 4.99606 13.7377 5.01548 13.6711L5.66546 11.448C5.7386 11.1989 5.87325 10.9722 6.057 10.7887L13.0312 3.81378Z" stroke="#8B919B" stroke-linecap="round" stroke-linejoin="round"/>
</svg>
