<svg width="24" height="24" viewBox="0 0 24 24" fill="none" xmlns="http://www.w3.org/2000/svg">
<path fill-rule="evenodd" clip-rule="evenodd" d="M11.6328 2.09735C11.7442 2.0336 11.871 2 12.0001 2C12.1291 2 12.2559 2.0336 12.3673 2.09735L14.5536 3.3478C14.7153 3.44577 14.8315 3.60178 14.8775 3.78255C14.9235 3.96333 14.8956 4.15456 14.7997 4.31546C14.7039 4.47635 14.5477 4.59418 14.3645 4.64381C14.1813 4.69344 13.9855 4.67094 13.819 4.58111L12.0001 3.54113L10.1811 4.58111C10.0984 4.63123 10.0063 4.66462 9.91017 4.67931C9.81408 4.69399 9.71597 4.68968 9.6216 4.66662C9.52724 4.64356 9.43854 4.60222 9.36073 4.54504C9.28292 4.48786 9.21758 4.41599 9.16855 4.33367C9.11952 4.25135 9.0878 4.16025 9.07525 4.06572C9.0627 3.9712 9.06958 3.87517 9.09549 3.7833C9.12139 3.69142 9.1658 3.60556 9.22609 3.53076C9.28638 3.45597 9.36133 3.39376 9.44653 3.3478L11.6328 2.09735ZM6.07098 6.10489C6.16814 6.26846 6.19508 6.46315 6.14589 6.64618C6.0967 6.82921 5.9754 6.98562 5.80863 7.08106L4.70094 7.71438L5.80863 8.3477C5.89383 8.39365 5.96879 8.45586 6.02908 8.53066C6.08937 8.60545 6.13377 8.69131 6.15968 8.78319C6.18558 8.87506 6.19246 8.97109 6.17992 9.06562C6.16737 9.16014 6.13564 9.25125 6.08661 9.33356C6.03758 9.41588 5.97224 9.48775 5.89443 9.54493C5.81662 9.60211 5.72792 9.64345 5.63356 9.66651C5.5392 9.68957 5.44108 9.69388 5.34499 9.6792C5.2489 9.66451 5.15678 9.63113 5.07406 9.581L3.98386 8.95816V9.85719C3.98386 10.0466 3.90708 10.2283 3.77041 10.3623C3.63375 10.4962 3.44839 10.5715 3.25511 10.5715C3.06184 10.5715 2.87648 10.4962 2.73981 10.3623C2.60315 10.2283 2.52637 10.0466 2.52637 9.85719V7.71438C2.52633 7.58952 2.55968 7.46683 2.62311 7.35855C2.68653 7.25027 2.7778 7.16017 2.88782 7.09725L5.07406 5.84775C5.15674 5.80045 5.24811 5.76958 5.34297 5.75691C5.43782 5.74423 5.5343 5.75 5.62687 5.77388C5.71945 5.79775 5.80633 5.83928 5.88253 5.89607C5.95873 5.95287 6.02277 6.02383 6.07098 6.10489ZM17.9291 6.10489C17.9773 6.02383 18.0414 5.95287 18.1176 5.89607C18.1938 5.83928 18.2806 5.79775 18.3732 5.77388C18.4658 5.75 18.5623 5.74423 18.6571 5.75691C18.752 5.76958 18.8434 5.80045 18.926 5.84775L21.1123 7.09725C21.2223 7.16017 21.3136 7.25027 21.377 7.35855C21.4404 7.46683 21.4738 7.58952 21.4737 7.71438V9.85719C21.4737 10.0466 21.397 10.2283 21.2603 10.3623C21.1236 10.4962 20.9383 10.5715 20.745 10.5715C20.5517 10.5715 20.3664 10.4962 20.2297 10.3623C20.093 10.2283 20.0162 10.0466 20.0162 9.85719V8.95816L18.926 9.581C18.8433 9.63113 18.7512 9.66451 18.6551 9.6792C18.559 9.69388 18.4609 9.68957 18.3665 9.66651C18.2722 9.64345 18.1835 9.60211 18.1057 9.54493C18.0279 9.48775 17.9625 9.41588 17.9135 9.33356C17.8645 9.25125 17.8327 9.16014 17.8202 9.06562C17.8076 8.97109 17.8145 8.87506 17.8404 8.78319C17.8663 8.69131 17.9107 8.60545 17.971 8.53066C18.0313 8.45586 18.1063 8.39365 18.1915 8.3477L19.2992 7.71438L18.1915 7.08106C18.0247 6.98562 17.9034 6.82921 17.8542 6.64618C17.805 6.46315 17.832 6.26846 17.9291 6.10489ZM9.18418 11.1048C9.2324 11.0237 9.29643 10.9528 9.37264 10.896C9.44884 10.8392 9.53571 10.7976 9.62829 10.7738C9.72087 10.7499 9.81734 10.7441 9.9122 10.7568C10.007 10.7695 10.0984 10.8003 10.1811 10.8476L12.0001 11.8876L13.819 10.8476C13.9017 10.7975 13.9938 10.7641 14.0899 10.7494C14.186 10.7348 14.2841 10.7391 14.3785 10.7621C14.4729 10.7852 14.5616 10.8265 14.6394 10.8837C14.7172 10.9409 14.7825 11.0128 14.8316 11.0951C14.8806 11.1774 14.9123 11.2685 14.9249 11.363C14.9374 11.4576 14.9305 11.5536 14.9046 11.6455C14.8787 11.7373 14.8343 11.8232 14.774 11.898C14.7137 11.9728 14.6388 12.035 14.5536 12.0809L12.7288 13.1247V14.8571C12.7288 15.0465 12.652 15.2282 12.5154 15.3621C12.3787 15.4961 12.1933 15.5714 12.0001 15.5714C11.8068 15.5714 11.6214 15.4961 11.4848 15.3621C11.3481 15.2282 11.2713 15.0465 11.2713 14.8571V13.1238L9.44653 12.0809C9.27977 11.9855 9.15847 11.8291 9.10928 11.6461C9.06009 11.463 9.08703 11.2684 9.18418 11.1048ZM3.25511 13.4285C3.44839 13.4285 3.63375 13.5038 3.77041 13.6377C3.90708 13.7717 3.98386 13.9534 3.98386 14.1428V15.8761L5.80863 16.9189C5.89383 16.9649 5.96879 17.0271 6.02908 17.1019C6.08937 17.1767 6.13377 17.2626 6.15968 17.3544C6.18558 17.4463 6.19246 17.5423 6.17992 17.6369C6.16737 17.7314 6.13564 17.8225 6.08661 17.9048C6.03758 17.9871 5.97224 18.059 5.89443 18.1162C5.81662 18.1734 5.72792 18.2147 5.63356 18.2378C5.5392 18.2608 5.44108 18.2651 5.34499 18.2504C5.2489 18.2358 5.15678 18.2024 5.07406 18.1522L2.88782 16.9028C2.7778 16.8398 2.68653 16.7497 2.62311 16.6414C2.55968 16.5332 2.52633 16.4105 2.52637 16.2856V14.1428C2.52637 13.9534 2.60315 13.7717 2.73981 13.6377C2.87648 13.5038 3.06184 13.4285 3.25511 13.4285ZM20.745 13.4285C20.9383 13.4285 21.1236 13.5038 21.2603 13.6377C21.397 13.7717 21.4737 13.9534 21.4737 14.1428V16.2856C21.4738 16.4105 21.4404 16.5332 21.377 16.6414C21.3136 16.7497 21.2223 16.8398 21.1123 16.9028L18.926 18.1522C18.8433 18.2024 18.7512 18.2358 18.6551 18.2504C18.559 18.2651 18.4609 18.2608 18.3665 18.2378C18.2722 18.2147 18.1835 18.1734 18.1057 18.1162C18.0279 18.059 17.9625 17.9871 17.9135 17.9048C17.8645 17.8225 17.8327 17.7314 17.8202 17.6369C17.8076 17.5423 17.8145 17.4463 17.8404 17.3544C17.8663 17.2626 17.9107 17.1767 17.971 17.1019C18.0313 17.0271 18.1063 16.9649 18.1915 16.9189L20.0162 15.8752V14.1428C20.0162 13.9534 20.093 13.7717 20.2297 13.6377C20.3664 13.5038 20.5517 13.4285 20.745 13.4285ZM12.0001 18.4284C12.1933 18.4284 12.3787 18.5037 12.5154 18.6376C12.652 18.7716 12.7288 18.9533 12.7288 19.1427V20.0417L13.819 19.4189C13.9017 19.3688 13.9938 19.3354 14.0899 19.3207C14.186 19.306 14.2841 19.3103 14.3785 19.3334C14.4729 19.3564 14.5616 19.3978 14.6394 19.455C14.7172 19.5121 14.7825 19.584 14.8316 19.6663C14.8806 19.7486 14.9123 19.8398 14.9249 19.9343C14.9374 20.0288 14.9305 20.1248 14.9046 20.2167C14.8787 20.3086 14.8343 20.3944 14.774 20.4692C14.7137 20.544 14.6388 20.6062 14.5536 20.6522L12.3673 21.9026C12.2559 21.9664 12.1291 22 12.0001 22C11.871 22 11.7442 21.9664 11.6328 21.9026L9.44653 20.6522C9.36133 20.6062 9.28638 20.544 9.22609 20.4692C9.1658 20.3944 9.12139 20.3086 9.09549 20.2167C9.06958 20.1248 9.0627 20.0288 9.07525 19.9343C9.0878 19.8398 9.11952 19.7486 9.16855 19.6663C9.21758 19.584 9.28292 19.5121 9.36073 19.455C9.43854 19.3978 9.52724 19.3564 9.6216 19.3334C9.71597 19.3103 9.81408 19.306 9.91017 19.3207C10.0063 19.3354 10.0984 19.3688 10.1811 19.4189L11.2713 20.0417V19.1427C11.2713 18.9533 11.3481 18.7716 11.4848 18.6376C11.6214 18.5037 11.8068 18.4284 12.0001 18.4284Z" fill="#222222"/>
</svg>
