<svg width="24" height="24" viewBox="0 0 24 24" fill="none" xmlns="http://www.w3.org/2000/svg">
<path d="M10.1847 4.12761L12.0912 3.06835C12.1721 3.02352 12.263 3 12.3554 3C12.4479 3 12.5388 3.02352 12.6196 3.06835L14.5261 4.12761M6.37163 6.24613L4.4651 7.30539C4.38019 7.35249 4.3094 7.42143 4.26008 7.50507C4.21075 7.58871 4.18469 7.68402 4.18457 7.78112V9.89056M18.3392 6.24613L20.2457 7.30539C20.3307 7.35249 20.4014 7.42143 20.4508 7.50507C20.5001 7.58871 20.5262 7.68402 20.5263 7.78112V9.89056M18.3392 17.7545L20.2457 16.6955C20.3308 16.6483 20.4017 16.5793 20.451 16.4954C20.5003 16.4116 20.5263 16.3161 20.5263 16.2189V14.1094M14.5261 19.8726L12.6196 20.9316C12.5388 20.9765 12.4479 21 12.3554 21C12.263 21 12.1721 20.9765 12.0912 20.9316L10.1847 19.8726M6.37163 17.7545L4.4651 16.6955C4.38005 16.6483 4.30918 16.5793 4.25985 16.4954C4.21052 16.4116 4.18452 16.3161 4.18457 16.2189V14.1094" stroke="#222222" stroke-width="1.2" stroke-linecap="round" stroke-linejoin="round"/>
<path d="M4.66406 7.72839L6.52066 8.75974M12.3551 11.9224C12.2625 11.9224 12.1714 11.8988 12.0905 11.8538L10.2339 10.8224M12.3551 11.9224C12.4477 11.9224 12.5388 11.8988 12.6197 11.8538L14.4829 10.8188M12.3551 11.9224L12.3552 13.9847M20.0725 7.71387L18.2093 8.74884M12.3556 20.1717L12.3554 18.1094" stroke="#222222" stroke-width="1.2" stroke-linecap="round" stroke-linejoin="round"/>
</svg>
