<svg width="21" height="21" viewBox="0 0 21 21" fill="none" xmlns="http://www.w3.org/2000/svg">
<g clip-path="url(#clip0_222_2322)">
<path d="M9.42547 2.35216C9.71251 2.12885 10.062 2.00052 10.4253 1.98499C10.7887 1.96947 11.1478 2.06753 11.4528 2.26553L11.5745 2.35303L18.9105 8.05803C19.5413 8.54891 19.2342 9.53853 18.4738 9.61991L18.3723 9.62516H17.5V16.6252C17.5001 17.0667 17.3334 17.4919 17.0332 17.8156C16.733 18.1394 16.3215 18.3377 15.8812 18.3708L15.75 18.3752H5.24997C4.80861 18.3751 4.38359 18.2082 4.06004 17.908C3.73649 17.6079 3.53832 17.1965 3.50522 16.7564L3.49997 16.6252V9.62516H2.62759C1.82872 9.62516 1.46209 8.65566 2.01247 8.12453L2.08947 8.05803L9.42547 2.35216ZM10.5 3.73378L4.92184 8.07203C5.12222 8.23391 5.24997 8.48153 5.24997 8.75891V16.6252H7.87497V12.2502C7.87497 11.554 8.15153 10.8863 8.64381 10.394C9.1361 9.90172 9.80377 9.62516 10.5 9.62516C11.1962 9.62516 11.8638 9.90172 12.3561 10.394C12.8484 10.8863 13.125 11.554 13.125 12.2502V16.6252H15.75V8.75891C15.75 8.48153 15.8777 8.23391 16.0781 8.07203L10.5 3.73378ZM10.5 11.3752C10.2679 11.3752 10.0453 11.4673 9.88125 11.6314C9.71716 11.7955 9.62497 12.0181 9.62497 12.2502V16.6252H11.375V12.2502C11.375 12.0181 11.2828 11.7955 11.1187 11.6314C10.9546 11.4673 10.732 11.3752 10.5 11.3752Z" fill="black"/>
</g>
<defs>
<clipPath id="clip0_222_2322">
<rect width="21" height="21" fill="white"/>
</clipPath>
</defs>
</svg>
