<svg width="24" height="24" viewBox="0 0 24 24" fill="none" xmlns="http://www.w3.org/2000/svg">
<path d="M8.11111 16.5413V3.20801L3.20801 8.20801V21.5413L8.11111 16.5413Z" fill="#4BAEFE"/>
<path d="M3.36621 21.3837L8.00009 16.7498M8.00009 16.7498H21.6376M8.00009 16.7498V3.1123" stroke="black" stroke-linecap="round" stroke-linejoin="round" stroke-dasharray="4.17 4.17"/>
<path d="M21.3839 3.36612C21.6183 3.60054 21.75 3.91848 21.75 4.25V16.2325C21.7499 16.5638 21.6183 16.8815 21.3842 17.1158L17.1158 21.3842C16.8815 21.6183 16.5638 21.7499 16.2325 21.75H4.25C3.91848 21.75 3.60054 21.6183 3.36612 21.3839C3.1317 21.1495 3 20.8315 3 20.5V8.5175C3.00007 8.18621 3.13165 7.8685 3.36583 7.63417L7.63417 3.36583C7.8685 3.13165 8.18621 3.00007 8.5175 3H20.5C20.8315 3 21.1495 3.1317 21.3839 3.36612ZM21.3839 3.36612L16.75 8M16.75 21.6375V8M16.75 8H3.1125" stroke="black" stroke-linecap="round" stroke-linejoin="round"/>
</svg>
