<svg width="24" height="24" viewBox="0 0 24 24" fill="none" xmlns="http://www.w3.org/2000/svg">
<path d="M21 17.6C21.3314 17.6 21.6 17.3314 21.6 17C21.6 16.6686 21.3314 16.4 21 16.4V17V17.6ZM2 17V17.6H21V17V16.4H2V17Z" fill="#222222"/>
<path d="M15 12.6C15.3314 12.6 15.6 12.3314 15.6 12C15.6 11.6686 15.3314 11.4 15 11.4V12V12.6ZM2 12V12.6H15V12V11.4H2V12Z" fill="#222222"/>
<path d="M21 7.6C21.3314 7.6 21.6 7.33137 21.6 7C21.6 6.66863 21.3314 6.4 21 6.4V7V7.6ZM2 7V7.6H21V7V6.4H2V7Z" fill="#222222"/>
</svg>
