<svg width="24" height="24" viewBox="0 0 24 24" fill="none" xmlns="http://www.w3.org/2000/svg">
<path d="M8.38648 6.59201C8.19493 6.4004 8.08732 6.14057 8.08732 5.86965C8.08732 5.59872 8.19493 5.33889 8.38648 5.14729L11.2045 2.32937C11.3089 2.22495 11.4328 2.14212 11.5692 2.0856C11.7056 2.02909 11.8518 2 11.9995 2C12.1471 2 12.2933 2.02909 12.4297 2.0856C12.5661 2.14212 12.6901 2.22495 12.7944 2.32937L15.6115 5.14729C15.7091 5.24154 15.7869 5.35428 15.8405 5.47894C15.894 5.60359 15.9222 5.73766 15.9234 5.87332C15.9246 6.00899 15.8987 6.14353 15.8473 6.26909C15.7959 6.39466 15.7201 6.50874 15.6241 6.60467C15.5282 6.7006 15.4141 6.77647 15.2885 6.82784C15.163 6.87922 15.0284 6.90507 14.8928 6.90389C14.7571 6.90271 14.623 6.87453 14.4983 6.82098C14.3737 6.76743 14.2609 6.68959 14.1667 6.59201L13.0213 5.44665V10.9783H18.5532L17.4078 9.83292C17.216 9.64134 17.1083 9.38144 17.1082 9.11041C17.1081 8.83938 17.2157 8.57941 17.4072 8.38769C17.5988 8.19597 17.8587 8.08821 18.1298 8.08812C18.4008 8.08802 18.6608 8.1956 18.8526 8.38718L21.6706 11.2051C21.775 11.3095 21.8579 11.4334 21.9144 11.5698C21.9709 11.7062 22 11.8524 22 12C22 12.1476 21.9709 12.2938 21.9144 12.4302C21.8579 12.5666 21.775 12.6905 21.6706 12.7949L18.8526 15.6128C18.6608 15.8044 18.4008 15.912 18.1298 15.9119C17.8587 15.9118 17.5988 15.804 17.4072 15.6123C17.2157 15.4206 17.1081 15.1606 17.1082 14.8896C17.1083 14.6186 17.216 14.3587 17.4078 14.1671L18.5532 13.0217H13.0213V18.5533L14.1667 17.408C14.3594 17.2219 14.6175 17.1189 14.8854 17.1212C15.1533 17.1235 15.4096 17.231 15.599 17.4204C15.7885 17.6099 15.8959 17.8661 15.8983 18.134C15.9006 18.4019 15.7976 18.66 15.6115 18.8527L12.7944 21.6706C12.6901 21.7751 12.5661 21.8579 12.4297 21.9144C12.2933 21.9709 12.1471 22 11.9995 22C11.8518 22 11.7056 21.9709 11.5692 21.9144C11.4328 21.8579 11.3089 21.7751 11.2045 21.6706L8.38648 18.8527C8.29162 18.7578 8.21638 18.6451 8.16506 18.5211C8.11375 18.3971 8.08736 18.2642 8.08741 18.13C8.08745 17.9958 8.11394 17.8629 8.16534 17.7389C8.21674 17.615 8.29206 17.5023 8.38699 17.4075C8.48193 17.3126 8.59462 17.2374 8.71863 17.1861C8.84264 17.1348 8.97554 17.1084 9.10975 17.1084C9.24396 17.1085 9.37685 17.1349 9.50082 17.1863C9.6248 17.2377 9.73743 17.3131 9.8323 17.408L10.9767 18.5533V13.0217H5.44683L6.59224 14.1671C6.68718 14.2619 6.76249 14.3746 6.8139 14.4985C6.8653 14.6225 6.89178 14.7554 6.89183 14.8896C6.89188 15.0238 6.86549 15.1567 6.81417 15.2807C6.76286 15.4047 6.68762 15.5174 6.59275 15.6123C6.49789 15.7072 6.38525 15.7826 6.26128 15.834C6.1373 15.8854 6.00442 15.9118 5.87021 15.9119C5.736 15.9119 5.60309 15.8855 5.47908 15.8342C5.35507 15.7829 5.24238 15.7077 5.14745 15.6128L2.32939 12.7949C2.22496 12.6905 2.14212 12.5666 2.08561 12.4302C2.02909 12.2938 2 12.1476 2 12C2 11.8524 2.02909 11.7062 2.08561 11.5698C2.14212 11.4334 2.22496 11.3095 2.32939 11.2051L5.14745 8.38718C5.33931 8.19573 5.59937 8.08834 5.87042 8.08863C6.14146 8.08892 6.4013 8.19686 6.59275 8.38871C6.78421 8.58056 6.89161 8.84061 6.89132 9.11164C6.89103 9.38268 6.78308 9.6425 6.59122 9.83394L5.44581 10.9783H10.9777V5.44767L9.8323 6.59201C9.7374 6.687 9.62471 6.76236 9.50067 6.81378C9.37663 6.8652 9.24367 6.89167 9.10939 6.89167C8.97511 6.89167 8.84215 6.8652 8.71811 6.81378C8.59407 6.76236 8.48138 6.687 8.38648 6.59201Z" fill="#222222"/>
</svg>
