<svg width="24" height="24" viewBox="0 0 24 24" fill="none" xmlns="http://www.w3.org/2000/svg">
<g clip-path="url(#clip0_181_763)">
<path fill-rule="evenodd" clip-rule="evenodd" d="M13.3 19.3739C11.7562 19.6461 10.166 19.428 8.75252 18.7502C7.33905 18.0724 6.17332 16.969 5.41899 15.5949C5.22548 15.2502 4.90373 14.9958 4.52368 14.887C4.14364 14.7783 3.73603 14.824 3.38947 15.0141C3.04291 15.2042 2.78541 15.5235 2.67297 15.9025C2.56052 16.2814 2.60222 16.6895 2.78899 17.0379C4.89099 20.8729 9.26899 23.1309 13.821 22.3279C19.531 21.3219 23.345 15.8759 22.338 10.1649C21.33 4.45387 15.885 0.639873 10.174 1.64787C7.91133 2.04671 5.84187 3.17646 4.28275 4.86401C2.72362 6.55155 1.76085 8.70379 1.54199 10.9909C1.41799 12.2999 2.80799 13.1499 3.90999 12.5399L6.72999 10.9779C8.27699 10.1219 7.49699 7.75887 5.74399 7.99187L5.64199 8.00587C6.30544 6.94692 7.22298 6.07053 8.31123 5.45632C9.39948 4.8421 10.624 4.50954 11.8734 4.48884C13.1229 4.46815 14.3577 4.75997 15.4657 5.33781C16.5737 5.91564 17.5197 6.76116 18.2179 7.79756C18.9161 8.83396 19.3442 10.0284 19.4634 11.2723C19.5826 12.5162 19.3891 13.7702 18.9005 14.9203C18.4119 16.0705 17.6437 17.0803 16.6656 17.8581C15.6875 18.6358 14.5306 19.1569 13.3 19.3739Z" fill="#222222"/>
</g>
<defs>
<clipPath id="clip0_181_763">
<rect width="24" height="24" fill="white"/>
</clipPath>
</defs>
</svg>
