<svg width="24" height="24" viewBox="0 0 24 24" fill="none" xmlns="http://www.w3.org/2000/svg">
<path d="M6.14058 9.42129C6.27424 9.11807 6.13679 8.76391 5.83357 8.63025C5.53035 8.49659 5.17619 8.63405 5.04253 8.93727L5.59156 9.17928L6.14058 9.42129ZM9.17928 5.59156L8.93727 5.04253C8.91416 5.05271 8.89173 5.06434 8.87009 5.07735L9.17928 5.59156ZM8.19081 5.4858C7.90683 5.65656 7.81504 6.0252 7.9858 6.30919C8.15656 6.59317 8.5252 6.68496 8.80919 6.5142L8.5 6L8.19081 5.4858ZM19 12H18.4C18.4 15.5346 15.5346 18.4 12 18.4V19V19.6C16.1974 19.6 19.6 16.1974 19.6 12H19ZM12 19V18.4C8.46538 18.4 5.6 15.5346 5.6 12H5H4.4C4.4 16.1974 7.80264 19.6 12 19.6V19ZM12 5V5.6C15.5346 5.6 18.4 8.46538 18.4 12H19H19.6C19.6 7.80264 16.1974 4.4 12 4.4V5ZM5 12H5.6C5.6 11.0813 5.79319 10.2094 6.14058 9.42129L5.59156 9.17928L5.04253 8.93727C4.62919 9.87496 4.4 10.9115 4.4 12H5ZM9.17928 5.59156L9.42129 6.14058C10.2094 5.79319 11.0813 5.6 12 5.6V5V4.4C10.9115 4.4 9.87496 4.62919 8.93727 5.04253L9.17928 5.59156ZM9.17928 5.59156L8.87009 5.07735L8.19081 5.4858L8.5 6L8.80919 6.5142L9.48846 6.10576L9.17928 5.59156Z" fill="#222222"/>
<path d="M8.53127 4.0002L7.83854 6.33667L10.1834 6.95842" stroke="#222222" stroke-width="1.2" stroke-linecap="round"/>
</svg>
