<svg width="24" height="24" viewBox="0 0 24 24" fill="none" xmlns="http://www.w3.org/2000/svg">
<g clip-path="url(#clip0_153_950)">
<path d="M9.05274 20.1587C9.04621 19.9107 9.13094 19.6688 9.29086 19.4791C9.45079 19.2894 9.67479 19.1649 9.92037 19.1294L10.0387 19.1192L11.0514 19.0923C12.6236 19.0508 14.1184 18.4015 15.2219 17.2809C16.3254 16.1603 16.9516 14.6556 16.969 13.083L16.967 12.855L16.8708 9.22331L16.089 10.0477C15.9116 10.2341 15.6698 10.3461 15.4128 10.3607C15.1558 10.3754 14.9029 10.2917 14.7054 10.1266C14.5079 9.96156 14.3807 9.72751 14.3495 9.47201C14.3183 9.21651 14.3855 8.95872 14.5375 8.751L14.6191 8.65357L17.0839 6.05468C17.2319 5.89799 17.4263 5.793 17.6384 5.75522L17.8022 5.73872C18.0249 5.73469 18.2427 5.80447 18.4216 5.93718L18.5201 6.02071L21.1148 8.48159C21.3013 8.65904 21.4132 8.9008 21.4279 9.15778C21.4425 9.41475 21.3588 9.66768 21.1937 9.86518C21.0287 10.0627 20.7946 10.1899 20.5391 10.2211C20.2836 10.2523 20.0258 10.1851 19.8181 10.0331L19.7207 9.95153L18.8963 9.16968L18.9925 12.8014C19.0482 14.9063 18.2825 16.9503 16.8576 18.5005C15.4326 20.0508 13.4603 20.9856 11.3581 21.1071L11.105 21.1178L10.0923 21.1446C9.8237 21.1518 9.56328 21.0519 9.36833 20.867C9.17337 20.6821 9.05985 20.4273 9.05274 20.1587ZM2.63813 15.4711C2.45167 15.2936 2.33975 15.0519 2.32508 14.7949C2.31042 14.5379 2.39412 14.285 2.55919 14.0875C2.72425 13.89 2.9583 13.7627 3.2138 13.7315C3.4693 13.7003 3.72709 13.7676 3.93481 13.9196L4.03224 14.0011L4.8566 14.783L4.76045 11.1513C4.70475 9.04636 5.47043 7.0024 6.89538 5.45214C8.32033 3.90189 10.2927 2.96706 12.3948 2.84558L12.6479 2.83483L13.6606 2.80801C13.9188 2.80147 14.1697 2.89373 14.3621 3.06596C14.5544 3.23819 14.6738 3.47738 14.6958 3.73467C14.7177 3.99195 14.6406 4.24791 14.4802 4.45024C14.3197 4.65257 14.0881 4.786 13.8326 4.82327L13.7143 4.8335L12.7015 4.86031C11.1294 4.90188 9.63449 5.55117 8.53101 6.67177C7.42753 7.79238 6.80132 9.29706 6.78396 10.8697L6.78594 11.0976L6.88209 14.7293L7.66393 13.905C7.84138 13.7185 8.08314 13.6066 8.34011 13.5919C8.59709 13.5773 8.85002 13.661 9.04751 13.826C9.24501 13.9911 9.37228 14.2252 9.40346 14.4807C9.43464 14.7362 9.36741 14.9939 9.2154 15.2017L9.13386 15.2991L6.66904 17.898C6.49927 18.077 6.27002 18.1879 6.02431 18.2098C5.7786 18.2318 5.5333 18.1634 5.33444 18.0174L5.23702 17.9359L2.63813 15.4711Z" fill="#222222"/>
</g>
<defs>
<clipPath id="clip0_153_950">
<rect width="24" height="24" fill="white"/>
</clipPath>
</defs>
</svg>
