<svg width="24" height="24" viewBox="0 0 24 24" fill="none" xmlns="http://www.w3.org/2000/svg">
<g clip-path="url(#clip0_153_948)">
<path fill-rule="evenodd" clip-rule="evenodd" d="M12.1217 2.11265C12.2738 2.03129 12.4451 1.99274 12.6174 2.00113C12.7896 2.00951 12.9564 2.06452 13.0998 2.16027L18.3892 5.68687C18.6502 5.86075 18.8642 6.09638 19.0122 6.37283C19.1602 6.64928 19.2377 6.958 19.2378 7.27159V17.2381C19.2378 17.4105 19.191 17.5797 19.1024 17.7276C19.0138 17.8755 18.8867 17.9966 18.7347 18.0779C18.5827 18.1593 18.4114 18.1978 18.2392 18.1894C18.067 18.1811 17.9003 18.1261 17.7569 18.0304L15.4283 16.4781V19.1428C15.4284 19.3152 15.3816 19.4844 15.293 19.6323C15.2044 19.7802 15.0773 19.9013 14.9253 19.9826C14.7732 20.064 14.602 20.1025 14.4298 20.0942C14.2576 20.0858 14.0908 20.0308 13.9474 19.9351L11.6189 18.3828V21.0475C11.6189 21.2199 11.5721 21.3891 11.4835 21.537C11.3949 21.6849 11.2678 21.806 11.1158 21.8874C10.9638 21.9687 10.7925 22.0072 10.6203 21.9989C10.4481 21.9905 10.2814 21.9356 10.138 21.8399L4.84855 18.3142C4.58746 18.1402 4.37338 17.9045 4.22534 17.6278C4.07731 17.3512 3.9999 17.0423 4 16.7285V6.76208C3.99997 6.58966 4.04676 6.42047 4.13535 6.27256C4.22395 6.12465 4.35105 6.00356 4.50307 5.92222C4.6551 5.84088 4.82635 5.80233 4.99857 5.8107C5.17078 5.81906 5.3375 5.87402 5.48092 5.96972L7.80944 7.52206V4.85736C7.80942 4.68494 7.8562 4.51575 7.9448 4.36784C8.0334 4.21992 8.16049 4.09884 8.31251 4.0175C8.46454 3.93616 8.6358 3.89761 8.80801 3.90598C8.98023 3.91434 9.14694 3.9693 9.29037 4.06499L11.6189 5.61734V2.95264C11.6188 2.78022 11.6656 2.61102 11.7541 2.46309C11.8427 2.31515 11.9697 2.19403 12.1217 2.11265ZM13.5236 6.88684L14.5807 7.59159C14.8415 7.76558 15.0553 8.00126 15.2032 8.2777C15.351 8.55415 15.4284 8.86281 15.4283 9.17632V14.1886L17.3331 15.459V7.27159L13.5236 4.73355V6.88684ZM9.71417 8.79156L10.7713 9.49631C11.0321 9.6703 11.2459 9.90598 11.3937 10.1824C11.5416 10.4589 11.6189 10.7675 11.6189 11.081V16.0933L13.5236 17.3628V9.17632L9.71417 6.63827V8.79156ZM5.90472 8.543V16.7295L9.71417 19.2685V11.082L5.90472 8.543Z" fill="#222222"/>
</g>
<defs>
<clipPath id="clip0_153_948">
<rect width="24" height="24" fill="white"/>
</clipPath>
</defs>
</svg>
