<svg width="24" height="24" viewBox="0 0 24 24" fill="none" xmlns="http://www.w3.org/2000/svg">
<path d="M18.7102 5.71865V12.2814C18.7102 12.357 18.69 12.4313 18.6517 12.4965C18.6133 12.5617 18.5582 12.6154 18.492 12.6521L12.5606 15.9468C12.4977 15.9817 12.427 16 12.3551 16C12.2832 16 12.2125 15.9817 12.1496 15.9468L6.21819 12.6521C6.15204 12.6154 6.09692 12.5617 6.05855 12.4965C6.02018 12.4313 5.99996 12.357 6 12.2814V5.71865C6.00009 5.64312 6.02036 5.569 6.05873 5.50394C6.09709 5.43889 6.15215 5.38527 6.21819 5.34864L12.1496 2.05316C12.2125 2.0183 12.2832 2 12.3551 2C12.427 2 12.4977 2.0183 12.5606 2.05316L18.492 5.34864C18.5581 5.38527 18.6131 5.43889 18.6515 5.50394C18.6898 5.569 18.7101 5.64312 18.7102 5.71865Z" stroke="#222222" stroke-width="1.2" stroke-linecap="round" stroke-linejoin="round"/>
<path d="M6.37305 5.67731L12.1491 8.88593C12.2121 8.92093 12.2829 8.9393 12.355 8.9393C12.427 8.9393 12.4978 8.92093 12.5608 8.88593L18.3574 5.66602M12.3553 15.3554V9.00033" stroke="#222222" stroke-width="1.2" stroke-linecap="round" stroke-linejoin="round"/>
<path d="M19.9997 16C19.9997 16 17.4191 20 11.9541 20" stroke="#222222" stroke-width="1.2" stroke-linecap="round"/>
<path d="M4 16.0449C4 16.0449 5.79897 18.9027 9.69555 19.7596" stroke="#222222" stroke-width="1.2" stroke-linecap="round"/>
<path d="M12.7313 18.0366L11.2784 20.1795L13.4759 21.3716" stroke="#222222" stroke-width="1.2" stroke-linecap="round"/>
</svg>
