<svg width="24" height="24" viewBox="0 0 24 24" fill="none" xmlns="http://www.w3.org/2000/svg">
<path d="M18.3547 5.71865V12.2814C18.3548 12.357 18.3346 12.4313 18.2962 12.4965C18.2578 12.5617 18.2027 12.6154 18.1365 12.6521L12.2051 15.9468C12.1422 15.9817 12.0715 16 11.9996 16C11.9277 16 11.857 15.9817 11.7942 15.9468L5.86272 12.6521C5.79657 12.6154 5.74145 12.5617 5.70308 12.4965C5.66471 12.4313 5.64449 12.357 5.64453 12.2814V5.71865C5.64462 5.64312 5.6649 5.569 5.70326 5.50394C5.74162 5.43889 5.79668 5.38527 5.86272 5.34864L11.7942 2.05316C11.857 2.0183 11.9277 2 11.9996 2C12.0715 2 12.1422 2.0183 12.2051 2.05316L18.1365 5.34864C18.2026 5.38527 18.2576 5.43889 18.296 5.50394C18.3344 5.569 18.3546 5.64312 18.3547 5.71865Z" stroke="#222222" stroke-width="1.16667" stroke-linecap="round" stroke-linejoin="round"/>
<path d="M6.01758 5.67731L11.7937 8.88593C11.8566 8.92093 11.9275 8.9393 11.9995 8.9393C12.0715 8.9393 12.1424 8.92093 12.2053 8.88593L18.0019 5.66602M11.9998 15.3554V9.00033" stroke="#222222" stroke-width="1.16667" stroke-linecap="round" stroke-linejoin="round"/>
<path d="M19.9997 16C19.9997 16 17.4191 20 11.9541 20" stroke="#222222" stroke-linecap="round"/>
<path d="M4 16.0454C4 16.0454 5.79897 18.9032 9.69555 19.7601" stroke="#222222" stroke-linecap="round"/>
<path d="M12.7313 18.0366L11.2784 20.1795L13.4759 21.3716" stroke="#222222" stroke-linecap="round"/>
</svg>
