<svg width="20" height="20" viewBox="0 0 20 20" fill="none" xmlns="http://www.w3.org/2000/svg">
<path d="M12.5 1.66699C12.942 1.66699 13.3661 1.84271 13.6787 2.15527C13.9912 2.46782 14.167 2.89203 14.167 3.33398V5H17.5V6.66699H15.833V16.667C15.833 17.109 15.6573 17.5331 15.3447 17.8457C15.0323 18.158 14.6087 18.3339 14.167 18.334H5.83301C5.39125 18.3339 4.96773 18.158 4.65527 17.8457C4.34271 17.5331 4.16699 17.109 4.16699 16.667V6.66699H2.5V5H5.83301V3.33398C5.83301 2.89203 6.00883 2.46782 6.32129 2.15527C6.63385 1.84271 7.05797 1.66699 7.5 1.66699H12.5ZM5.83301 6.66699V16.667H14.167V6.66699H5.83301ZM7.5 3.33398V5H12.5V3.33398H7.5Z" fill="#B5B9C2"/>
<path d="M12.5 1.66699C12.942 1.66699 13.3661 1.84271 13.6787 2.15527C13.9912 2.46782 14.167 2.89203 14.167 3.33398V5H17.5V6.66699H15.833V16.667C15.833 17.109 15.6573 17.5331 15.3447 17.8457C15.0323 18.158 14.6087 18.3339 14.167 18.334H5.83301C5.44639 18.3339 5.07382 18.1989 4.77734 17.9561L4.65527 17.8457C4.34271 17.5331 4.16699 17.109 4.16699 16.667V6.66699H2.5V5H5.83301V3.33398C5.83301 2.94716 5.96788 2.57394 6.21094 2.27734L6.32129 2.15527C6.63385 1.84271 7.05797 1.66699 7.5 1.66699H12.5ZM7.5 1.83398C7.10218 1.83398 6.72076 1.99213 6.43945 2.27344C6.15825 2.55473 6 2.93624 6 3.33398V5.16699H2.66699V6.5H4.33301V16.667C4.33301 17.0647 4.49126 17.4463 4.77246 17.7275C5.05369 18.0088 5.4353 18.1669 5.83301 18.167H14.167C14.5645 18.1669 14.9454 18.0086 15.2266 17.7275C15.5079 17.4462 15.666 17.0648 15.666 16.667V6.5H17.333V5.16699H14V3.33398C14 2.93624 13.8417 2.55473 13.5605 2.27344C13.2792 1.99213 12.8978 1.83398 12.5 1.83398H7.5ZM14.333 6.5V16.834H5.66602V6.5H14.333ZM5.83301 6.66699V16.667H14.167V6.66699H5.83301ZM9.16699 15H7.5V8.33398H9.16699V15ZM12.5 15H10.833V8.33398H12.5V15ZM12.667 5.16699H7.33301V3.16699H12.667V5.16699ZM7.5 5H12.5V3.33398H7.5V5Z" fill="#B5B9C2"/>
<path d="M9.16699 15H7.5V8.33301H9.16699V15ZM12.5 15H10.833V8.33301H12.5V15ZM7.66699 14.833H9V8.5H7.66699V14.833ZM11 14.833H12.333V8.5H11V14.833Z" fill="#B5B9C2"/>
</svg>
