<svg width="24" height="24" viewBox="0 0 24 24" fill="none" xmlns="http://www.w3.org/2000/svg">
<path d="M12.6895 7.25195C12.579 7.14328 12.4491 7.05778 12.3076 7C12.4139 7.04332 12.5136 7.10229 12.6035 7.1748L12.6895 7.25195ZM11.0234 7.25195C11.1339 7.14326 11.2637 7.05771 11.4053 7C11.2638 7.05778 11.1339 7.14328 11.0234 7.25195ZM2 16.2734L11.0938 7.32324C11.2959 7.12443 11.57 7.01172 11.8564 7.01172C12.1429 7.01172 12.417 7.12443 12.6191 7.32324L21.7139 16.2734L20.1904 17.7725L11.9268 9.64062L11.8564 9.57129L3.52344 17.7725L2 16.2734Z" fill="#222222"/>
</svg>
