<svg width="20" height="11" viewBox="0 0 20 11" fill="none" xmlns="http://www.w3.org/2000/svg">
<path d="M10.6895 0.251953C10.579 0.143276 10.4491 0.0577822 10.3076 0C10.4139 0.0433197 10.5136 0.102292 10.6035 0.174805L10.6895 0.251953ZM9.02344 0.251953C9.13392 0.143265 9.26369 0.0577116 9.40527 0C9.26376 0.0577822 9.13391 0.143276 9.02344 0.251953ZM0 9.27344L9.09375 0.323242C9.29588 0.124428 9.56997 0.0117188 9.85645 0.0117188C10.1429 0.0117188 10.417 0.124428 10.6191 0.323242L19.7139 9.27344L18.1904 10.7725L9.92676 2.64062L9.85645 2.57129L1.52344 10.7725L0 9.27344Z" fill="#222222"/>
</svg>
