<svg width="28" height="28" viewBox="0 0 28 28" fill="none" xmlns="http://www.w3.org/2000/svg">
<path d="M3.03345 14.6089C3.03345 15.8974 4.04818 17.2353 6.07446 18.2925C8.06687 19.3319 10.8681 19.9956 14.0002 19.9956C17.1324 19.9956 19.9337 19.332 21.926 18.2925C23.9521 17.2353 24.967 15.8973 24.967 14.6089C24.967 13.3205 23.9521 11.9825 21.926 10.9253C19.9337 9.8858 17.1324 9.22221 14.0002 9.22217C10.8681 9.22217 8.06687 9.88586 6.07446 10.9253C4.04821 11.9825 3.03347 13.3204 3.03345 14.6089Z" stroke="#47CEFF" stroke-width="1.4"/>
<path d="M7.29859 4.05176C6.9359 4.36956 6.67195 4.90726 6.5733 5.72661C6.47423 6.54959 6.55256 7.59489 6.82517 8.8061C7.36965 11.225 8.65861 14.1605 10.5844 17.0107C12.5102 19.8608 14.6718 22.032 16.5856 23.2513C17.5437 23.8617 18.4107 24.2153 19.1346 24.3172C19.8555 24.4187 20.3796 24.2661 20.7424 23.9484C21.1051 23.6306 21.369 23.0929 21.4677 22.2735C21.5667 21.4506 21.4896 20.4053 21.2171 19.1942C20.6727 16.7753 19.3829 13.8404 17.4571 10.9902C15.5314 8.1402 13.3705 5.96832 11.4567 4.74894C10.4984 4.1384 9.63036 3.78486 8.90632 3.68291C8.18552 3.58148 7.66132 3.73401 7.29859 4.05176Z" stroke="#47CEFF" stroke-width="1.4"/>
<path d="M20.7429 4.05176C21.1056 4.36956 21.3696 4.90726 21.4682 5.72661C21.5673 6.54959 21.4889 7.59489 21.2163 8.8061C20.6719 11.225 19.3829 14.1605 17.4571 17.0107C15.5313 19.8608 13.3697 22.032 11.4559 23.2513C10.4978 23.8617 9.63079 24.2153 8.90686 24.3172C8.18599 24.4187 7.66191 24.2661 7.29913 23.9484C6.93638 23.6306 6.67251 23.0929 6.57384 22.2735C6.47478 21.4506 6.55185 20.4053 6.82443 19.1942C7.36885 16.7753 8.65865 13.8404 10.5844 10.9902C12.5101 8.1402 14.671 5.96832 16.5848 4.74894C17.5431 4.1384 18.4111 3.78486 19.1352 3.68291C19.856 3.58148 20.3802 3.73401 20.7429 4.05176Z" stroke="#47CEFF" stroke-width="1.4"/>
<path d="M14.0002 13.4165C14.3223 13.4167 14.5833 13.6784 14.5833 14.0005C14.5831 14.3224 14.3222 14.5833 14.0002 14.5835C13.6782 14.5835 13.4164 14.3225 13.4163 14.0005C13.4163 13.6783 13.6781 13.4165 14.0002 13.4165Z" fill="#47CEFF" stroke="#47CEFF" stroke-width="1.16667"/>
</svg>
