<svg width="24" height="24" viewBox="0 0 24 24" fill="none" xmlns="http://www.w3.org/2000/svg">
<path d="M11.5278 3.94385H4.89506C4.39246 3.94385 3.91044 4.14351 3.55505 4.4989C3.19966 4.85429 3 5.33631 3 5.83891V19.1043C3 19.6069 3.19966 20.0889 3.55505 20.4443C3.91044 20.7997 4.39246 20.9994 4.89506 20.9994H18.1605C18.6631 20.9994 19.1451 20.7997 19.5005 20.4443C19.8559 20.0889 20.0555 19.6069 20.0555 19.1043V12.4716" stroke="#222222" stroke-width="1.2" stroke-linecap="round" stroke-linejoin="round"/>
<path d="M17.5688 3.58872C17.9457 3.21177 18.457 3 18.9901 3C19.5232 3 20.0344 3.21177 20.4114 3.58872C20.7883 3.96567 21.0001 4.47692 21.0001 5.01001C21.0001 5.5431 20.7883 6.05436 20.4114 6.43131L11.8713 14.9723C11.6463 15.1971 11.3683 15.3617 11.063 15.4508L8.34079 16.2468C8.25926 16.2705 8.17283 16.272 8.09056 16.2509C8.00829 16.2298 7.93319 16.187 7.87314 16.127C7.81308 16.0669 7.77028 15.9918 7.7492 15.9095C7.72812 15.8273 7.72954 15.7408 7.75333 15.6593L8.54925 12.937C8.63882 12.632 8.80369 12.3544 9.0287 12.1298L17.5688 3.58872Z" stroke="#222222" stroke-width="1.2" stroke-linecap="round" stroke-linejoin="round"/>
</svg>
